<svg xmlns="http://www.w3.org/2000/svg" viewBox="0 0 64 48" width="64" height="48" aria-hidden="true">
<rect width="64" height="48" fill="#b22234"/>
<g fill="#fff">
<rect y="4" width="64" height="4"/>
<rect y="12" width="64" height="4"/>
<rect y="20" width="64" height="4"/>
<rect y="28" width="64" height="4"/>
<rect y="36" width="64" height="4"/>
<rect y="44" width="64" height="4"/>
</g>
<rect width="28" height="20" fill="#3c3b6e"/>
<g fill="#fff">
<circle cx="4" cy="4" r="1"/>
<circle cx="10" cy="4" r="1"/>
<circle cx="16" cy="4" r="1"/>
<circle cx="22" cy="4" r="1"/>
<circle cx="7" cy="8" r="1"/>
<circle cx="13" cy="8" r="1"/>
<circle cx="19" cy="8" r="1"/>
<circle cx="25" cy="8" r="1"/>
<circle cx="4" cy="12" r="1"/>
<circle cx="10" cy="12" r="1"/>
<circle cx="16" cy="12" r="1"/>
<circle cx="22" cy="12" r="1"/>
<circle cx="7" cy="16" r="1"/>
<circle cx="13" cy="16" r="1"/>
<circle cx="19" cy="16" r="1"/>
<circle cx="25" cy="16" r="1"/>
</g>
</svg>
